PathFileType	4	(X/Y/Z)	C:\Users\italobelli\Desktop\GitHub\PTbot_officialCBL\Personal_Results\SHRUG21_noisy2.trc
DataRate	CameraRate	NumFrames	NumMarkers	Units	OrigDataRate	OrigDataStartFrame	OrigNumFrames
112.250000	112.250000	17	9	m	112.250000	113	450
Frame#	Time		gu		centelbow		EpL		centpxt8		centijc7		ij		ts		aa		ai
			X1	Y1	Z1	X2	Y2	Z2	X3	Y3	Z3	X4	Y4	Z4	X5	Y5	Z5	X6	Y6	Z6	X7	Y7	Z7	X8	Y8	Z8	X9	Y9	Z9

113	0.99777	-0.080251	-0.018424	0.16597	-0.13636	-0.24447	0.17806	-0.11977	-0.24156	0.20554	-0.046816	-0.15316	-0.008669	-0.046816	0.031938	-0.008669	0	0	0	-0.13481	0.034695	0.05213	-0.1064	0.023391	0.16741	-0.15821	-0.076384	0.052372
114	1.0067	-0.080335	-0.018343	0.1659	-0.13627	-0.24425	0.17807	-0.11969	-0.24133	0.20555	-0.046816	-0.15316	-0.008669	-0.046816	0.031938	-0.008669	0	0	0	-0.13481	0.034879	0.052029	-0.10649	0.02359	0.16732	-0.15821	-0.076186	0.052375
115	1.0156	-0.080429	-0.018145	0.16583	-0.13614	-0.24394	0.17815	-0.11958	-0.241	0.20563	-0.046816	-0.15316	-0.008669	-0.046816	0.031938	-0.008669	0	0	0	-0.13482	0.035088	0.051899	-0.1066	0.023892	0.1672	-0.1582	-0.075953	0.05241
116	1.0245	-0.080533	-0.017832	0.16575	-0.13599	-0.24354	0.17828	-0.11945	-0.24057	0.20577	-0.046816	-0.15316	-0.008669	-0.046816	0.031938	-0.008669	0	0	0	-0.13482	0.035321	0.05174	-0.10673	0.024296	0.16705	-0.15819	-0.075686	0.052476
117	1.0334	-0.080648	-0.017407	0.16566	-0.1358	-0.24306	0.17848	-0.11929	-0.24005	0.20596	-0.046816	-0.15316	-0.008669	-0.046816	0.031938	-0.008669	0	0	0	-0.13483	0.035576	0.051553	-0.10687	0.024799	0.16687	-0.15818	-0.075387	0.052572
118	1.0423	-0.080773	-0.016875	0.16556	-0.13558	-0.24249	0.17873	-0.11911	-0.23943	0.20622	-0.046816	-0.15316	-0.008669	-0.046816	0.031938	-0.008669	0	0	0	-0.13484	0.035853	0.051339	-0.10702	0.025397	0.16665	-0.15816	-0.075056	0.052696
119	1.0512	-0.080907	-0.01624	0.16545	-0.13534	-0.24184	0.17904	-0.1189	-0.23872	0.20653	-0.046816	-0.15316	-0.008669	-0.046816	0.031938	-0.008669	0	0	0	-0.13484	0.036151	0.0511	-0.10719	0.026086	0.16641	-0.15814	-0.074695	0.052848
120	1.0601	-0.08105	-0.015507	0.16534	-0.13506	-0.24112	0.1794	-0.11867	-0.23793	0.20689	-0.046816	-0.15316	-0.008669	-0.046816	0.031938	-0.008669	0	0	0	-0.13485	0.036468	0.050836	-0.10737	0.026861	0.16613	-0.15811	-0.074306	0.053026
121	1.069	-0.081201	-0.01468	0.16521	-0.13476	-0.24033	0.17981	-0.11842	-0.23706	0.2073	-0.046816	-0.15316	-0.008669	-0.046816	0.031938	-0.008669	0	0	0	-0.13486	0.036805	0.050549	-0.10756	0.027719	0.16583	-0.15808	-0.07389	0.05323
122	1.078	-0.081361	-0.013764	0.16509	-0.13444	-0.23947	0.18027	-0.11815	-0.23611	0.20776	-0.046816	-0.15316	-0.008669	-0.046816	0.031938	-0.008669	0	0	0	-0.13486	0.037159	0.05024	-0.10777	0.028655	0.16551	-0.15805	-0.073448	0.053457
123	1.0869	-0.081529	-0.012762	0.16495	-0.13409	-0.23854	0.18077	-0.11786	-0.23508	0.20827	-0.046816	-0.15316	-0.008669	-0.046816	0.031938	-0.008669	0	0	0	-0.13487	0.037529	0.049911	-0.10798	0.029666	0.16516	-0.15802	-0.072982	0.053707
124	1.0958	-0.081705	-0.01168	0.16481	-0.13372	-0.23756	0.18132	-0.11755	-0.23399	0.20882	-0.046816	-0.15316	-0.008669	-0.046816	0.031938	-0.008669	0	0	0	-0.13488	0.037916	0.049561	-0.10821	0.030747	0.16479	-0.15798	-0.072494	0.053979
125	1.1047	-0.081888	-0.010522	0.16466	-0.13333	-0.23651	0.18191	-0.11722	-0.23283	0.20941	-0.046816	-0.15316	-0.008669	-0.046816	0.031938	-0.008669	0	0	0	-0.13489	0.038317	0.049192	-0.10845	0.031895	0.1644	-0.15794	-0.071984	0.054271
126	1.1136	-0.082078	-0.009291	0.16451	-0.13292	-0.23541	0.18254	-0.11688	-0.23161	0.21004	-0.046816	-0.15316	-0.008669	-0.046816	0.031938	-0.008669	0	0	0	-0.1349	0.038731	0.048807	-0.1087	0.033106	0.16399	-0.1579	-0.071454	0.054583
127	1.1225	-0.082274	-0.007993	0.16436	-0.13249	-0.23427	0.1832	-0.11652	-0.23033	0.21071	-0.046816	-0.15316	-0.008669	-0.046816	0.031938	-0.008669	0	0	0	-0.13491	0.039159	0.048404	-0.10895	0.034375	0.16355	-0.15785	-0.070905	0.054912
128	1.1314	-0.082477	-0.0066317	0.1642	-0.13205	-0.23307	0.1839	-0.11615	-0.229	0.21141	-0.046816	-0.15316	-0.008669	-0.046816	0.031938	-0.008669	0	0	0	-0.13492	0.039598	0.047987	-0.10922	0.035698	0.1631	-0.1578	-0.070339	0.055258
129	1.1403	-0.082685	-0.0052118	0.16403	-0.13159	-0.23183	0.18463	-0.11577	-0.22762	0.21214	-0.046816	-0.15316	-0.008669	-0.046816	0.031938	-0.008669	0	0	0	-0.13492	0.040048	0.047555	-0.10949	0.037072	0.16264	-0.15776	-0.069758	0.05562
